<svg xmlns="http://www.w3.org/2000/svg" xmlns:xlink="http://www.w3.org/1999/xlink" width="1024" zoomAndPan="magnify" viewBox="0 0 768 767.999994" height="1024" preserveAspectRatio="xMidYMid meet" version="1.0"><defs><clipPath id="9d782e6c8f"><path d="M 183 114.023438 L 600.5625 114.023438 L 600.5625 654 L 183 654 Z M 183 114.023438 " clip-rule="nonzero"/></clipPath></defs><rect x="-76.8" width="921.6" fill="#ffffff" y="-76.799999" height="921.599993" fill-opacity="1"/><rect x="-76.8" width="921.6" fill="#cb6ce6" y="-76.799999" height="921.599993" fill-opacity="1"/><path fill="#ffffff" d="M 191.472656 424.152344 C 190.921875 424.152344 190.378906 424.101562 189.839844 423.992188 C 189.300781 423.886719 188.777344 423.726562 188.269531 423.515625 C 187.761719 423.308594 187.277344 423.050781 186.820312 422.742188 C 186.367188 422.4375 185.941406 422.089844 185.554688 421.703125 C 185.164062 421.3125 184.820312 420.890625 184.511719 420.433594 C 184.207031 419.976562 183.949219 419.496094 183.738281 418.988281 C 183.53125 418.480469 183.371094 417.957031 183.265625 417.417969 C 183.15625 416.878906 183.101562 416.335938 183.101562 415.785156 L 183.101562 352.207031 C 183.101562 351.65625 183.15625 351.113281 183.265625 350.574219 C 183.371094 350.035156 183.53125 349.511719 183.738281 349.003906 C 183.949219 348.496094 184.207031 348.015625 184.511719 347.558594 C 184.820312 347.101562 185.164062 346.675781 185.554688 346.289062 C 185.941406 345.902344 186.367188 345.554688 186.820312 345.25 C 187.277344 344.941406 187.761719 344.683594 188.269531 344.476562 C 188.777344 344.265625 189.300781 344.105469 189.839844 344 C 190.378906 343.890625 190.921875 343.839844 191.472656 343.839844 C 192.019531 343.839844 192.566406 343.890625 193.105469 344 C 193.644531 344.105469 194.167969 344.265625 194.675781 344.476562 C 195.179688 344.683594 195.664062 344.941406 196.121094 345.25 C 196.578125 345.554688 197 345.902344 197.390625 346.289062 C 197.777344 346.675781 198.125 347.101562 198.429688 347.558594 C 198.734375 348.015625 198.992188 348.496094 199.203125 349.003906 C 199.414062 349.511719 199.570312 350.035156 199.679688 350.574219 C 199.785156 351.113281 199.839844 351.65625 199.839844 352.207031 L 199.839844 415.785156 C 199.839844 416.335938 199.785156 416.878906 199.679688 417.417969 C 199.570312 417.957031 199.414062 418.480469 199.203125 418.988281 C 198.992188 419.496094 198.734375 419.976562 198.429688 420.433594 C 198.125 420.890625 197.777344 421.3125 197.390625 421.703125 C 197 422.089844 196.578125 422.4375 196.121094 422.742188 C 195.664062 423.050781 195.179688 423.308594 194.675781 423.515625 C 194.167969 423.726562 193.644531 423.886719 193.105469 423.992188 C 192.566406 424.101562 192.019531 424.152344 191.472656 424.152344 Z M 191.472656 424.152344 " fill-opacity="1" fill-rule="nonzero"/><g clip-path="url(#9d782e6c8f)"><path fill="#ffffff" d="M 529.734375 653.878906 L 217.535156 653.878906 C 216.40625 653.875 215.28125 653.820312 214.160156 653.707031 C 213.039062 653.597656 211.925781 653.429688 210.820312 653.210938 C 209.714844 652.988281 208.621094 652.714844 207.542969 652.386719 C 206.464844 652.058594 205.402344 651.675781 204.363281 651.246094 C 203.320312 650.8125 202.304688 650.332031 201.308594 649.800781 C 200.316406 649.265625 199.351562 648.6875 198.414062 648.0625 C 197.476562 647.433594 196.570312 646.761719 195.699219 646.046875 C 194.828125 645.332031 193.996094 644.578125 193.199219 643.777344 C 192.402344 642.980469 191.644531 642.148438 190.929688 641.277344 C 190.214844 640.40625 189.542969 639.5 188.917969 638.5625 C 188.289062 637.625 187.710938 636.660156 187.179688 635.667969 C 186.648438 634.671875 186.164062 633.65625 185.734375 632.613281 C 185.300781 631.570312 184.921875 630.511719 184.59375 629.433594 C 184.265625 628.355469 183.992188 627.261719 183.769531 626.15625 C 183.550781 625.050781 183.382812 623.9375 183.273438 622.816406 C 183.160156 621.695312 183.105469 620.570312 183.101562 619.441406 L 183.101562 561.417969 C 183.105469 560.867188 183.15625 560.324219 183.265625 559.785156 C 183.371094 559.246094 183.53125 558.722656 183.742188 558.21875 C 183.953125 557.710938 184.210938 557.226562 184.515625 556.773438 C 184.820312 556.316406 185.167969 555.894531 185.558594 555.503906 C 185.945312 555.117188 186.367188 554.769531 186.824219 554.464844 C 187.28125 554.160156 187.761719 553.902344 188.269531 553.691406 C 188.777344 553.484375 189.300781 553.324219 189.839844 553.21875 C 190.378906 553.109375 190.921875 553.058594 191.472656 553.058594 C 192.019531 553.058594 192.5625 553.109375 193.101562 553.21875 C 193.640625 553.324219 194.164062 553.484375 194.671875 553.691406 C 195.179688 553.902344 195.660156 554.160156 196.117188 554.464844 C 196.574219 554.769531 196.996094 555.117188 197.386719 555.503906 C 197.773438 555.894531 198.121094 556.316406 198.425781 556.773438 C 198.730469 557.226562 198.988281 557.710938 199.199219 558.21875 C 199.410156 558.722656 199.570312 559.246094 199.675781 559.785156 C 199.785156 560.324219 199.839844 560.867188 199.839844 561.417969 L 199.839844 619.441406 C 199.839844 620.019531 199.871094 620.597656 199.925781 621.175781 C 199.984375 621.753906 200.070312 622.324219 200.183594 622.890625 C 200.296875 623.460938 200.4375 624.023438 200.605469 624.578125 C 200.773438 625.128906 200.96875 625.675781 201.191406 626.210938 C 201.414062 626.746094 201.660156 627.269531 201.933594 627.78125 C 202.207031 628.289062 202.507812 628.785156 202.828125 629.269531 C 203.148438 629.75 203.496094 630.214844 203.863281 630.664062 C 204.230469 631.109375 204.617188 631.539062 205.027344 631.949219 C 205.4375 632.359375 205.867188 632.746094 206.3125 633.113281 C 206.761719 633.484375 207.226562 633.828125 207.707031 634.148438 C 208.191406 634.472656 208.6875 634.769531 209.195312 635.042969 C 209.707031 635.316406 210.230469 635.566406 210.765625 635.785156 C 211.300781 636.007812 211.84375 636.203125 212.398438 636.371094 C 212.953125 636.542969 213.515625 636.683594 214.082031 636.796875 C 214.652344 636.910156 215.222656 636.996094 215.800781 637.054688 C 216.375 637.109375 216.953125 637.140625 217.535156 637.140625 L 529.734375 637.140625 C 531.507812 637.140625 533.273438 637.050781 535.039062 636.875 C 536.800781 636.699219 538.550781 636.4375 540.289062 636.089844 C 542.027344 635.742188 543.746094 635.3125 545.441406 634.796875 C 547.136719 634.28125 548.804688 633.683594 550.441406 633.003906 C 552.078125 632.324219 553.675781 631.566406 555.238281 630.730469 C 556.800781 629.894531 558.320312 628.984375 559.792969 628 C 561.265625 627.011719 562.6875 625.957031 564.058594 624.835938 C 565.429688 623.710938 566.738281 622.519531 567.992188 621.265625 C 569.246094 620.015625 570.433594 618.703125 571.558594 617.332031 C 572.683594 615.960938 573.738281 614.542969 574.726562 613.066406 C 575.710938 611.59375 576.621094 610.078125 577.457031 608.511719 C 578.292969 606.949219 579.050781 605.351562 579.730469 603.714844 C 580.410156 602.078125 581.007812 600.410156 581.523438 598.714844 C 582.039062 597.019531 582.46875 595.300781 582.816406 593.5625 C 583.164062 591.828125 583.425781 590.074219 583.601562 588.3125 C 583.777344 586.546875 583.863281 584.78125 583.867188 583.007812 L 583.867188 184.984375 C 583.863281 183.210938 583.777344 181.445312 583.601562 179.679688 C 583.425781 177.917969 583.164062 176.164062 582.816406 174.429688 C 582.46875 172.691406 582.039062 170.972656 581.523438 169.277344 C 581.007812 167.582031 580.410156 165.914062 579.730469 164.277344 C 579.050781 162.640625 578.292969 161.042969 577.457031 159.476562 C 576.621094 157.914062 575.710938 156.398438 574.726562 154.925781 C 573.738281 153.449219 572.683594 152.03125 571.558594 150.660156 C 570.4375 149.289062 569.246094 147.976562 567.992188 146.726562 C 566.738281 145.472656 565.429688 144.28125 564.058594 143.15625 C 562.6875 142.035156 561.265625 140.980469 559.792969 139.992188 C 558.320312 139.007812 556.800781 138.097656 555.238281 137.261719 C 553.675781 136.425781 552.078125 135.667969 550.441406 134.988281 C 548.804688 134.308594 547.136719 133.710938 545.441406 133.195312 C 543.746094 132.679688 542.027344 132.25 540.289062 131.902344 C 538.550781 131.554688 536.800781 131.292969 535.039062 131.117188 C 533.273438 130.941406 531.507812 130.851562 529.734375 130.851562 L 217.535156 130.851562 C 216.953125 130.851562 216.375 130.882812 215.800781 130.9375 C 215.222656 130.996094 214.652344 131.082031 214.082031 131.195312 C 213.515625 131.308594 212.953125 131.449219 212.398438 131.621094 C 211.84375 131.789062 211.300781 131.984375 210.765625 132.207031 C 210.230469 132.425781 209.707031 132.675781 209.195312 132.949219 C 208.6875 133.222656 208.191406 133.519531 207.707031 133.84375 C 207.226562 134.164062 206.761719 134.507812 206.3125 134.875 C 205.867188 135.246094 205.4375 135.632812 205.027344 136.042969 C 204.617188 136.453125 204.230469 136.882812 203.863281 137.328125 C 203.496094 137.777344 203.148438 138.242188 202.828125 138.722656 C 202.507812 139.207031 202.207031 139.703125 201.933594 140.210938 C 201.660156 140.722656 201.414062 141.246094 201.191406 141.78125 C 200.96875 142.316406 200.773438 142.863281 200.605469 143.414062 C 200.4375 143.96875 200.296875 144.53125 200.183594 145.097656 C 200.070312 145.667969 199.984375 146.238281 199.925781 146.816406 C 199.871094 147.394531 199.839844 147.972656 199.839844 148.550781 L 199.839844 206.574219 C 199.839844 207.125 199.785156 207.667969 199.679688 208.207031 C 199.570312 208.746094 199.414062 209.269531 199.203125 209.777344 C 198.992188 210.285156 198.734375 210.765625 198.429688 211.222656 C 198.125 211.679688 197.777344 212.105469 197.390625 212.492188 C 197 212.878906 196.578125 213.226562 196.121094 213.53125 C 195.664062 213.839844 195.179688 214.097656 194.675781 214.304688 C 194.167969 214.515625 193.644531 214.675781 193.105469 214.78125 C 192.566406 214.890625 192.019531 214.941406 191.472656 214.941406 C 190.921875 214.941406 190.378906 214.890625 189.839844 214.78125 C 189.300781 214.675781 188.777344 214.515625 188.269531 214.304688 C 187.761719 214.097656 187.277344 213.839844 186.820312 213.53125 C 186.367188 213.226562 185.941406 212.878906 185.554688 212.492188 C 185.164062 212.105469 184.820312 211.679688 184.511719 211.222656 C 184.207031 210.765625 183.949219 210.285156 183.738281 209.777344 C 183.53125 209.269531 183.371094 208.746094 183.265625 208.207031 C 183.15625 207.667969 183.101562 207.125 183.101562 206.574219 L 183.101562 148.550781 C 183.105469 147.421875 183.160156 146.296875 183.273438 145.175781 C 183.382812 144.054688 183.550781 142.941406 183.769531 141.835938 C 183.992188 140.730469 184.265625 139.636719 184.59375 138.558594 C 184.921875 137.480469 185.300781 136.421875 185.734375 135.378906 C 186.164062 134.335938 186.648438 133.320312 187.179688 132.324219 C 187.710938 131.332031 188.289062 130.367188 188.917969 129.429688 C 189.542969 128.492188 190.214844 127.585938 190.929688 126.714844 C 191.644531 125.84375 192.402344 125.011719 193.199219 124.214844 C 193.996094 123.414062 194.828125 122.660156 195.699219 121.945312 C 196.570312 121.230469 197.476562 120.558594 198.414062 119.929688 C 199.351562 119.304688 200.316406 118.726562 201.308594 118.191406 C 202.304688 117.660156 203.320312 117.179688 204.363281 116.746094 C 205.402344 116.316406 206.464844 115.933594 207.542969 115.605469 C 208.621094 115.277344 209.714844 115.003906 210.820312 114.78125 C 211.925781 114.5625 213.039062 114.394531 214.160156 114.285156 C 215.28125 114.171875 216.40625 114.117188 217.535156 114.113281 L 529.734375 114.113281 C 568.808594 114.113281 600.605469 145.910156 600.605469 184.984375 L 600.605469 583.007812 C 600.605469 622.082031 568.820312 653.878906 529.734375 653.878906 Z M 529.734375 653.878906 " fill-opacity="1" fill-rule="nonzero"/></g><path fill="#ffffff" d="M 191.472656 528.757812 C 190.921875 528.757812 190.378906 528.707031 189.839844 528.597656 C 189.300781 528.492188 188.777344 528.332031 188.269531 528.121094 C 187.761719 527.910156 187.277344 527.65625 186.820312 527.347656 C 186.367188 527.042969 185.941406 526.695312 185.554688 526.308594 C 185.164062 525.917969 184.820312 525.496094 184.511719 525.039062 C 184.207031 524.582031 183.949219 524.101562 183.738281 523.59375 C 183.53125 523.085938 183.371094 522.5625 183.265625 522.023438 C 183.15625 521.484375 183.101562 520.941406 183.101562 520.390625 L 183.101562 456.8125 C 183.101562 456.261719 183.15625 455.71875 183.265625 455.179688 C 183.371094 454.640625 183.53125 454.117188 183.738281 453.609375 C 183.949219 453.101562 184.207031 452.621094 184.511719 452.164062 C 184.820312 451.707031 185.164062 451.28125 185.554688 450.894531 C 185.941406 450.507812 186.367188 450.160156 186.820312 449.855469 C 187.277344 449.546875 187.761719 449.289062 188.269531 449.082031 C 188.777344 448.871094 189.300781 448.710938 189.839844 448.605469 C 190.378906 448.496094 190.921875 448.445312 191.472656 448.445312 C 192.019531 448.445312 192.566406 448.496094 193.105469 448.605469 C 193.644531 448.710938 194.167969 448.871094 194.675781 449.082031 C 195.179688 449.289062 195.664062 449.546875 196.121094 449.855469 C 196.578125 450.160156 197 450.507812 197.390625 450.894531 C 197.777344 451.28125 198.125 451.707031 198.429688 452.164062 C 198.734375 452.621094 198.992188 453.101562 199.203125 453.609375 C 199.414062 454.117188 199.570312 454.640625 199.679688 455.179688 C 199.785156 455.71875 199.839844 456.261719 199.839844 456.8125 L 199.839844 520.390625 C 199.839844 520.941406 199.785156 521.484375 199.679688 522.023438 C 199.570312 522.5625 199.414062 523.085938 199.203125 523.59375 C 198.992188 524.101562 198.734375 524.582031 198.429688 525.039062 C 198.125 525.496094 197.777344 525.917969 197.390625 526.308594 C 197 526.695312 196.578125 527.042969 196.121094 527.347656 C 195.664062 527.652344 195.179688 527.910156 194.675781 528.121094 C 194.167969 528.332031 193.644531 528.492188 193.105469 528.597656 C 192.566406 528.707031 192.019531 528.757812 191.472656 528.757812 Z M 191.472656 528.757812 " fill-opacity="1" fill-rule="nonzero"/><path fill="#ffffff" d="M 191.472656 319.546875 C 190.921875 319.546875 190.378906 319.496094 189.839844 319.386719 C 189.300781 319.28125 188.777344 319.121094 188.269531 318.910156 C 187.761719 318.703125 187.277344 318.445312 186.820312 318.136719 C 186.367188 317.832031 185.941406 317.484375 185.554688 317.097656 C 185.164062 316.710938 184.820312 316.285156 184.511719 315.828125 C 184.207031 315.371094 183.949219 314.890625 183.738281 314.382812 C 183.53125 313.875 183.371094 313.351562 183.265625 312.8125 C 183.15625 312.273438 183.101562 311.730469 183.101562 311.179688 L 183.101562 247.601562 C 183.101562 247.050781 183.15625 246.507812 183.265625 245.96875 C 183.371094 245.429688 183.53125 244.90625 183.738281 244.398438 C 183.949219 243.890625 184.207031 243.410156 184.511719 242.953125 C 184.820312 242.496094 185.164062 242.074219 185.554688 241.683594 C 185.941406 241.296875 186.367188 240.949219 186.820312 240.644531 C 187.277344 240.335938 187.761719 240.078125 188.269531 239.871094 C 188.777344 239.660156 189.300781 239.5 189.839844 239.394531 C 190.378906 239.285156 190.921875 239.234375 191.472656 239.234375 C 192.019531 239.234375 192.566406 239.285156 193.105469 239.394531 C 193.644531 239.5 194.167969 239.660156 194.675781 239.871094 C 195.179688 240.078125 195.664062 240.335938 196.121094 240.644531 C 196.578125 240.949219 197 241.296875 197.390625 241.683594 C 197.777344 242.074219 198.125 242.496094 198.429688 242.953125 C 198.734375 243.410156 198.992188 243.890625 199.203125 244.398438 C 199.414062 244.90625 199.570312 245.429688 199.679688 245.96875 C 199.785156 246.507812 199.839844 247.050781 199.839844 247.601562 L 199.839844 311.179688 C 199.839844 311.730469 199.785156 312.273438 199.679688 312.8125 C 199.570312 313.351562 199.414062 313.875 199.203125 314.382812 C 198.992188 314.890625 198.734375 315.371094 198.429688 315.828125 C 198.125 316.285156 197.777344 316.710938 197.390625 317.097656 C 197 317.484375 196.578125 317.832031 196.121094 318.136719 C 195.664062 318.445312 195.179688 318.703125 194.675781 318.910156 C 194.167969 319.121094 193.644531 319.28125 193.105469 319.386719 C 192.566406 319.496094 192.019531 319.546875 191.472656 319.546875 Z M 191.472656 319.546875 " fill-opacity="1" fill-rule="nonzero"/><path fill="#ffffff" d="M 215.574219 569.785156 L 167.371094 569.785156 C 166.425781 569.785156 165.480469 569.738281 164.539062 569.648438 C 163.597656 569.554688 162.664062 569.414062 161.734375 569.230469 C 160.808594 569.046875 159.890625 568.816406 158.988281 568.542969 C 158.082031 568.265625 157.191406 567.949219 156.316406 567.585938 C 155.445312 567.226562 154.589844 566.820312 153.753906 566.375 C 152.921875 565.929688 152.109375 565.445312 151.324219 564.917969 C 150.539062 564.394531 149.777344 563.828125 149.046875 563.230469 C 148.316406 562.628906 147.617188 561.996094 146.949219 561.328125 C 146.277344 560.65625 145.644531 559.957031 145.042969 559.226562 C 144.445312 558.496094 143.882812 557.734375 143.355469 556.949219 C 142.832031 556.164062 142.34375 555.351562 141.898438 554.519531 C 141.453125 553.683594 141.050781 552.832031 140.6875 551.957031 C 140.324219 551.082031 140.007812 550.191406 139.734375 549.289062 C 139.457031 548.382812 139.226562 547.464844 139.042969 546.539062 C 138.859375 545.609375 138.71875 544.675781 138.628906 543.734375 C 138.535156 542.792969 138.488281 541.851562 138.488281 540.902344 C 138.488281 539.957031 138.535156 539.015625 138.628906 538.074219 C 138.71875 537.132812 138.859375 536.195312 139.042969 535.269531 C 139.226562 534.339844 139.457031 533.425781 139.734375 532.519531 C 140.007812 531.613281 140.324219 530.726562 140.6875 529.851562 C 141.050781 528.976562 141.453125 528.125 141.898438 527.289062 C 142.34375 526.457031 142.832031 525.644531 143.355469 524.859375 C 143.882812 524.070312 144.445312 523.3125 145.042969 522.582031 C 145.644531 521.851562 146.277344 521.152344 146.949219 520.480469 C 147.617188 519.8125 148.316406 519.179688 149.046875 518.578125 C 149.777344 517.976562 150.539062 517.414062 151.324219 516.890625 C 152.109375 516.363281 152.921875 515.878906 153.753906 515.433594 C 154.589844 514.988281 155.445312 514.582031 156.316406 514.222656 C 157.191406 513.859375 158.082031 513.539062 158.988281 513.265625 C 159.890625 512.992188 160.808594 512.761719 161.734375 512.578125 C 162.664062 512.394531 163.597656 512.253906 164.539062 512.160156 C 165.480469 512.070312 166.425781 512.023438 167.371094 512.023438 L 215.574219 512.023438 C 216.519531 512.023438 217.460938 512.070312 218.402344 512.160156 C 219.34375 512.253906 220.277344 512.394531 221.207031 512.578125 C 222.132812 512.761719 223.050781 512.992188 223.957031 513.265625 C 224.863281 513.539062 225.75 513.859375 226.625 514.222656 C 227.5 514.582031 228.351562 514.988281 229.1875 515.433594 C 230.019531 515.878906 230.832031 516.363281 231.617188 516.890625 C 232.40625 517.414062 233.164062 517.976562 233.894531 518.578125 C 234.625 519.179688 235.324219 519.8125 235.996094 520.480469 C 236.664062 521.152344 237.296875 521.851562 237.898438 522.582031 C 238.5 523.3125 239.0625 524.070312 239.585938 524.859375 C 240.113281 525.644531 240.597656 526.457031 241.042969 527.289062 C 241.488281 528.125 241.894531 528.976562 242.253906 529.851562 C 242.617188 530.726562 242.9375 531.613281 243.210938 532.519531 C 243.484375 533.425781 243.714844 534.339844 243.898438 535.269531 C 244.082031 536.195312 244.222656 537.132812 244.316406 538.074219 C 244.40625 539.015625 244.453125 539.957031 244.453125 540.902344 C 244.453125 541.851562 244.40625 542.792969 244.316406 543.734375 C 244.222656 544.675781 244.082031 545.609375 243.898438 546.539062 C 243.714844 547.464844 243.484375 548.382812 243.210938 549.289062 C 242.9375 550.191406 242.617188 551.082031 242.253906 551.957031 C 241.894531 552.832031 241.488281 553.683594 241.042969 554.519531 C 240.597656 555.351562 240.113281 556.164062 239.585938 556.949219 C 239.0625 557.734375 238.5 558.496094 237.898438 559.226562 C 237.296875 559.957031 236.664062 560.65625 235.996094 561.328125 C 235.324219 561.996094 234.625 562.628906 233.894531 563.230469 C 233.164062 563.828125 232.40625 564.390625 231.617188 564.917969 C 230.832031 565.445312 230.019531 565.929688 229.1875 566.375 C 228.351562 566.820312 227.5 567.226562 226.625 567.585938 C 225.75 567.949219 224.863281 568.265625 223.957031 568.542969 C 223.050781 568.816406 222.132812 569.046875 221.207031 569.230469 C 220.277344 569.414062 219.34375 569.554688 218.402344 569.648438 C 217.460938 569.738281 216.519531 569.785156 215.574219 569.785156 Z M 167.371094 528.757812 C 166.574219 528.757812 165.78125 528.835938 165 528.992188 C 164.21875 529.148438 163.460938 529.378906 162.722656 529.683594 C 161.984375 529.988281 161.285156 530.363281 160.625 530.804688 C 159.960938 531.25 159.347656 531.753906 158.78125 532.316406 C 158.21875 532.878906 157.714844 533.492188 157.273438 534.15625 C 156.828125 534.820312 156.457031 535.519531 156.148438 536.257812 C 155.84375 536.992188 155.613281 537.753906 155.460938 538.535156 C 155.304688 539.316406 155.226562 540.105469 155.226562 540.902344 C 155.226562 541.703125 155.304688 542.492188 155.460938 543.273438 C 155.613281 544.054688 155.84375 544.816406 156.148438 545.550781 C 156.457031 546.289062 156.828125 546.988281 157.273438 547.652344 C 157.714844 548.3125 158.21875 548.925781 158.78125 549.492188 C 159.347656 550.054688 159.960938 550.558594 160.625 551 C 161.285156 551.445312 161.984375 551.820312 162.722656 552.125 C 163.460938 552.429688 164.21875 552.660156 165 552.816406 C 165.78125 552.972656 166.574219 553.046875 167.371094 553.046875 L 215.574219 553.046875 C 216.371094 553.046875 217.160156 552.972656 217.941406 552.816406 C 218.722656 552.660156 219.484375 552.429688 220.21875 552.125 C 220.957031 551.820312 221.65625 551.445312 222.320312 551 C 222.984375 550.558594 223.597656 550.054688 224.160156 549.492188 C 224.722656 548.925781 225.226562 548.3125 225.671875 547.652344 C 226.113281 546.988281 226.488281 546.289062 226.792969 545.550781 C 227.097656 544.816406 227.328125 544.054688 227.484375 543.273438 C 227.640625 542.492188 227.71875 541.703125 227.71875 540.902344 C 227.71875 540.105469 227.640625 539.316406 227.484375 538.535156 C 227.328125 537.753906 227.097656 536.992188 226.792969 536.257812 C 226.488281 535.519531 226.113281 534.820312 225.671875 534.15625 C 225.226562 533.492188 224.722656 532.878906 224.160156 532.316406 C 223.597656 531.753906 222.984375 531.25 222.320312 530.804688 C 221.65625 530.363281 220.957031 529.988281 220.21875 529.683594 C 219.484375 529.378906 218.722656 529.148438 217.941406 528.992188 C 217.160156 528.835938 216.371094 528.757812 215.574219 528.757812 Z M 167.371094 528.757812 " fill-opacity="1" fill-rule="nonzero"/><path fill="#ffffff" d="M 215.574219 465.179688 L 167.371094 465.179688 C 166.425781 465.179688 165.480469 465.132812 164.539062 465.042969 C 163.597656 464.949219 162.664062 464.808594 161.734375 464.625 C 160.808594 464.441406 159.890625 464.210938 158.988281 463.9375 C 158.082031 463.660156 157.191406 463.34375 156.316406 462.980469 C 155.445312 462.621094 154.589844 462.214844 153.753906 461.769531 C 152.921875 461.324219 152.109375 460.839844 151.324219 460.3125 C 150.539062 459.789062 149.777344 459.222656 149.046875 458.625 C 148.316406 458.023438 147.617188 457.390625 146.949219 456.722656 C 146.277344 456.050781 145.644531 455.351562 145.042969 454.621094 C 144.445312 453.890625 143.882812 453.128906 143.355469 452.34375 C 142.832031 451.558594 142.34375 450.746094 141.898438 449.914062 C 141.453125 449.078125 141.050781 448.226562 140.6875 447.351562 C 140.324219 446.476562 140.007812 445.585938 139.734375 444.683594 C 139.457031 443.777344 139.226562 442.859375 139.042969 441.933594 C 138.859375 441.003906 138.71875 440.070312 138.628906 439.128906 C 138.535156 438.1875 138.488281 437.246094 138.488281 436.296875 C 138.488281 435.351562 138.535156 434.410156 138.628906 433.46875 C 138.71875 432.527344 138.859375 431.59375 139.042969 430.664062 C 139.226562 429.738281 139.457031 428.820312 139.734375 427.914062 C 140.007812 427.007812 140.324219 426.121094 140.6875 425.246094 C 141.050781 424.371094 141.453125 423.519531 141.898438 422.683594 C 142.34375 421.851562 142.832031 421.039062 143.355469 420.253906 C 143.882812 419.464844 144.445312 418.707031 145.042969 417.976562 C 145.644531 417.246094 146.277344 416.546875 146.949219 415.875 C 147.617188 415.207031 148.316406 414.574219 149.046875 413.972656 C 149.777344 413.371094 150.539062 412.808594 151.324219 412.285156 C 152.109375 411.757812 152.921875 411.273438 153.753906 410.828125 C 154.589844 410.382812 155.445312 409.976562 156.316406 409.617188 C 157.191406 409.253906 158.082031 408.933594 158.988281 408.660156 C 159.890625 408.386719 160.808594 408.15625 161.734375 407.972656 C 162.664062 407.789062 163.597656 407.648438 164.539062 407.554688 C 165.480469 407.464844 166.425781 407.417969 167.371094 407.417969 L 215.574219 407.417969 C 216.519531 407.417969 217.460938 407.464844 218.402344 407.554688 C 219.34375 407.648438 220.277344 407.789062 221.207031 407.972656 C 222.132812 408.15625 223.050781 408.386719 223.957031 408.660156 C 224.863281 408.933594 225.75 409.253906 226.625 409.617188 C 227.5 409.976562 228.351562 410.382812 229.1875 410.828125 C 230.019531 411.273438 230.832031 411.757812 231.617188 412.285156 C 232.40625 412.808594 233.164062 413.371094 233.894531 413.972656 C 234.625 414.574219 235.324219 415.207031 235.996094 415.875 C 236.664062 416.546875 237.296875 417.246094 237.898438 417.976562 C 238.5 418.707031 239.0625 419.464844 239.585938 420.253906 C 240.113281 421.039062 240.597656 421.851562 241.042969 422.683594 C 241.488281 423.519531 241.894531 424.371094 242.253906 425.246094 C 242.617188 426.121094 242.9375 427.007812 243.210938 427.914062 C 243.484375 428.820312 243.714844 429.738281 243.898438 430.664062 C 244.082031 431.59375 244.222656 432.527344 244.316406 433.46875 C 244.40625 434.410156 244.453125 435.351562 244.453125 436.296875 C 244.453125 437.246094 244.40625 438.1875 244.316406 439.128906 C 244.222656 440.070312 244.082031 441.003906 243.898438 441.933594 C 243.714844 442.859375 243.484375 443.777344 243.210938 444.683594 C 242.9375 445.585938 242.617188 446.476562 242.253906 447.351562 C 241.894531 448.226562 241.488281 449.078125 241.042969 449.914062 C 240.597656 450.746094 240.113281 451.558594 239.585938 452.34375 C 239.0625 453.128906 238.5 453.890625 237.898438 454.621094 C 237.296875 455.351562 236.664062 456.050781 235.996094 456.722656 C 235.324219 457.390625 234.625 458.023438 233.894531 458.625 C 233.164062 459.222656 232.40625 459.789062 231.617188 460.3125 C 230.832031 460.839844 230.019531 461.324219 229.1875 461.769531 C 228.351562 462.214844 227.5 462.621094 226.625 462.980469 C 225.75 463.34375 224.863281 463.660156 223.957031 463.9375 C 223.050781 464.210938 222.132812 464.441406 221.207031 464.625 C 220.277344 464.808594 219.34375 464.949219 218.402344 465.042969 C 217.460938 465.132812 216.519531 465.179688 215.574219 465.179688 Z M 167.371094 424.152344 C 166.574219 424.152344 165.78125 424.230469 165 424.386719 C 164.21875 424.542969 163.460938 424.773438 162.722656 425.078125 C 161.984375 425.382812 161.285156 425.757812 160.625 426.199219 C 159.960938 426.644531 159.347656 427.148438 158.78125 427.710938 C 158.21875 428.273438 157.714844 428.886719 157.273438 429.550781 C 156.828125 430.214844 156.457031 430.914062 156.148438 431.652344 C 155.84375 432.386719 155.613281 433.148438 155.460938 433.929688 C 155.304688 434.710938 155.226562 435.5 155.226562 436.296875 C 155.226562 437.097656 155.304688 437.886719 155.460938 438.667969 C 155.613281 439.449219 155.84375 440.210938 156.148438 440.945312 C 156.457031 441.683594 156.828125 442.382812 157.273438 443.046875 C 157.714844 443.707031 158.21875 444.324219 158.78125 444.886719 C 159.347656 445.449219 159.960938 445.953125 160.625 446.398438 C 161.285156 446.839844 161.984375 447.214844 162.722656 447.519531 C 163.460938 447.824219 164.21875 448.054688 165 448.210938 C 165.78125 448.367188 166.574219 448.445312 167.371094 448.445312 L 215.574219 448.445312 C 216.371094 448.445312 217.160156 448.367188 217.941406 448.210938 C 218.722656 448.054688 219.484375 447.824219 220.21875 447.519531 C 220.957031 447.214844 221.65625 446.839844 222.320312 446.398438 C 222.984375 445.953125 223.597656 445.449219 224.160156 444.886719 C 224.722656 444.324219 225.226562 443.707031 225.671875 443.046875 C 226.113281 442.382812 226.488281 441.683594 226.792969 440.945312 C 227.097656 440.210938 227.328125 439.449219 227.484375 438.667969 C 227.640625 437.886719 227.71875 437.097656 227.71875 436.296875 C 227.71875 435.5 227.640625 434.710938 227.484375 433.929688 C 227.328125 433.148438 227.097656 432.386719 226.792969 431.652344 C 226.488281 430.914062 226.113281 430.214844 225.671875 429.550781 C 225.226562 428.886719 224.722656 428.273438 224.160156 427.710938 C 223.597656 427.148438 222.984375 426.644531 222.320312 426.199219 C 221.65625 425.757812 220.957031 425.382812 220.21875 425.078125 C 219.484375 424.773438 218.722656 424.542969 217.941406 424.386719 C 217.160156 424.230469 216.371094 424.152344 215.574219 424.152344 Z M 167.371094 424.152344 " fill-opacity="1" fill-rule="nonzero"/><path fill="#ffffff" d="M 215.574219 360.574219 L 167.371094 360.574219 C 166.425781 360.574219 165.480469 360.527344 164.539062 360.4375 C 163.597656 360.34375 162.664062 360.203125 161.734375 360.019531 C 160.808594 359.835938 159.890625 359.605469 158.988281 359.332031 C 158.082031 359.058594 157.191406 358.738281 156.316406 358.375 C 155.445312 358.015625 154.589844 357.609375 153.753906 357.164062 C 152.921875 356.71875 152.109375 356.234375 151.324219 355.707031 C 150.539062 355.183594 149.777344 354.617188 149.046875 354.019531 C 148.316406 353.417969 147.617188 352.785156 146.949219 352.117188 C 146.277344 351.445312 145.644531 350.746094 145.042969 350.015625 C 144.445312 349.285156 143.882812 348.527344 143.355469 347.738281 C 142.832031 346.953125 142.34375 346.140625 141.898438 345.308594 C 141.453125 344.472656 141.050781 343.621094 140.6875 342.746094 C 140.324219 341.871094 140.007812 340.980469 139.734375 340.078125 C 139.457031 339.171875 139.226562 338.253906 139.042969 337.328125 C 138.859375 336.398438 138.71875 335.464844 138.628906 334.523438 C 138.535156 333.582031 138.488281 332.640625 138.488281 331.691406 C 138.488281 330.746094 138.535156 329.804688 138.628906 328.863281 C 138.71875 327.921875 138.859375 326.988281 139.042969 326.058594 C 139.226562 325.132812 139.457031 324.214844 139.734375 323.308594 C 140.007812 322.40625 140.324219 321.515625 140.6875 320.640625 C 141.050781 319.765625 141.453125 318.914062 141.898438 318.078125 C 142.34375 317.246094 142.832031 316.433594 143.355469 315.648438 C 143.882812 314.859375 144.445312 314.101562 145.042969 313.371094 C 145.644531 312.640625 146.277344 311.941406 146.949219 311.269531 C 147.617188 310.601562 148.316406 309.96875 149.046875 309.367188 C 149.777344 308.765625 150.539062 308.203125 151.324219 307.679688 C 152.109375 307.152344 152.921875 306.667969 153.753906 306.222656 C 154.589844 305.777344 155.445312 305.371094 156.316406 305.011719 C 157.191406 304.648438 158.082031 304.328125 158.988281 304.054688 C 159.890625 303.78125 160.808594 303.550781 161.734375 303.367188 C 162.664062 303.183594 163.597656 303.042969 164.539062 302.949219 C 165.480469 302.859375 166.425781 302.8125 167.371094 302.8125 L 215.574219 302.8125 C 216.519531 302.8125 217.460938 302.859375 218.402344 302.949219 C 219.34375 303.042969 220.277344 303.183594 221.207031 303.367188 C 222.132812 303.550781 223.050781 303.78125 223.957031 304.054688 C 224.863281 304.328125 225.75 304.648438 226.625 305.011719 C 227.5 305.371094 228.351562 305.777344 229.1875 306.222656 C 230.019531 306.667969 230.832031 307.152344 231.617188 307.679688 C 232.40625 308.203125 233.164062 308.765625 233.894531 309.367188 C 234.625 309.96875 235.324219 310.601562 235.996094 311.269531 C 236.664062 311.941406 237.296875 312.640625 237.898438 313.371094 C 238.5 314.101562 239.0625 314.859375 239.585938 315.648438 C 240.113281 316.433594 240.597656 317.246094 241.042969 318.078125 C 241.488281 318.914062 241.894531 319.765625 242.253906 320.640625 C 242.617188 321.515625 242.9375 322.40625 243.210938 323.308594 C 243.484375 324.214844 243.714844 325.132812 243.898438 326.058594 C 244.082031 326.988281 244.222656 327.921875 244.316406 328.863281 C 244.40625 329.804688 244.453125 330.746094 244.453125 331.691406 C 244.453125 332.640625 244.40625 333.582031 244.316406 334.523438 C 244.222656 335.464844 244.082031 336.398438 243.898438 337.328125 C 243.714844 338.253906 243.484375 339.171875 243.210938 340.078125 C 242.9375 340.980469 242.617188 341.871094 242.253906 342.746094 C 241.894531 343.621094 241.488281 344.472656 241.042969 345.308594 C 240.597656 346.140625 240.113281 346.953125 239.585938 347.738281 C 239.0625 348.527344 238.5 349.285156 237.898438 350.015625 C 237.296875 350.746094 236.664062 351.445312 235.996094 352.117188 C 235.324219 352.785156 234.625 353.417969 233.894531 354.019531 C 233.164062 354.617188 232.40625 355.183594 231.617188 355.707031 C 230.832031 356.234375 230.019531 356.71875 229.1875 357.164062 C 228.351562 357.609375 227.5 358.015625 226.625 358.375 C 225.75 358.738281 224.863281 359.058594 223.957031 359.332031 C 223.050781 359.605469 222.132812 359.835938 221.207031 360.019531 C 220.277344 360.203125 219.34375 360.34375 218.402344 360.4375 C 217.460938 360.527344 216.519531 360.574219 215.574219 360.574219 Z M 167.371094 319.546875 C 166.574219 319.546875 165.78125 319.625 165 319.78125 C 164.21875 319.9375 163.460938 320.167969 162.722656 320.472656 C 161.984375 320.777344 161.285156 321.152344 160.625 321.59375 C 159.960938 322.039062 159.347656 322.542969 158.78125 323.105469 C 158.21875 323.667969 157.714844 324.28125 157.273438 324.945312 C 156.828125 325.609375 156.457031 326.308594 156.148438 327.046875 C 155.84375 327.78125 155.613281 328.542969 155.460938 329.324219 C 155.304688 330.105469 155.226562 330.894531 155.226562 331.691406 C 155.226562 332.492188 155.304688 333.28125 155.460938 334.0625 C 155.613281 334.84375 155.84375 335.605469 156.148438 336.339844 C 156.457031 337.078125 156.828125 337.777344 157.273438 338.441406 C 157.714844 339.105469 158.21875 339.71875 158.78125 340.28125 C 159.347656 340.84375 159.960938 341.347656 160.625 341.792969 C 161.285156 342.234375 161.984375 342.609375 162.722656 342.914062 C 163.460938 343.21875 164.21875 343.449219 165 343.605469 C 165.78125 343.761719 166.574219 343.839844 167.371094 343.839844 L 215.574219 343.839844 C 216.371094 343.839844 217.160156 343.761719 217.941406 343.605469 C 218.722656 343.449219 219.484375 343.21875 220.21875 342.914062 C 220.957031 342.609375 221.65625 342.234375 222.320312 341.792969 C 222.984375 341.347656 223.597656 340.84375 224.160156 340.28125 C 224.722656 339.71875 225.226562 339.105469 225.671875 338.441406 C 226.113281 337.777344 226.488281 337.078125 226.792969 336.339844 C 227.097656 335.605469 227.328125 334.84375 227.484375 334.0625 C 227.640625 333.28125 227.71875 332.492188 227.71875 331.691406 C 227.71875 330.894531 227.640625 330.105469 227.484375 329.324219 C 227.328125 328.542969 227.097656 327.78125 226.792969 327.046875 C 226.488281 326.308594 226.113281 325.609375 225.671875 324.945312 C 225.226562 324.28125 224.722656 323.667969 224.160156 323.105469 C 223.597656 322.542969 222.984375 322.039062 222.320312 321.59375 C 221.65625 321.152344 220.957031 320.777344 220.21875 320.472656 C 219.484375 320.167969 218.722656 319.9375 217.941406 319.78125 C 217.160156 319.625 216.371094 319.546875 215.574219 319.546875 Z M 167.371094 319.546875 " fill-opacity="1" fill-rule="nonzero"/><path fill="#ffffff" d="M 215.574219 255.96875 L 167.371094 255.96875 C 166.425781 255.96875 165.480469 255.921875 164.539062 255.832031 C 163.597656 255.738281 162.664062 255.597656 161.734375 255.414062 C 160.808594 255.230469 159.890625 255 158.988281 254.726562 C 158.082031 254.453125 157.191406 254.132812 156.316406 253.769531 C 155.445312 253.410156 154.589844 253.003906 153.753906 252.558594 C 152.921875 252.113281 152.109375 251.628906 151.324219 251.101562 C 150.539062 250.578125 149.777344 250.015625 149.046875 249.414062 C 148.316406 248.8125 147.617188 248.179688 146.949219 247.511719 C 146.277344 246.839844 145.644531 246.140625 145.042969 245.410156 C 144.445312 244.679688 143.882812 243.921875 143.355469 243.132812 C 142.832031 242.347656 142.34375 241.535156 141.898438 240.703125 C 141.453125 239.867188 141.050781 239.015625 140.6875 238.140625 C 140.324219 237.265625 140.007812 236.378906 139.734375 235.472656 C 139.457031 234.566406 139.226562 233.648438 139.042969 232.722656 C 138.859375 231.792969 138.71875 230.859375 138.628906 229.917969 C 138.535156 228.976562 138.488281 228.035156 138.488281 227.089844 C 138.488281 226.140625 138.535156 225.199219 138.628906 224.257812 C 138.71875 223.316406 138.859375 222.382812 139.042969 221.453125 C 139.226562 220.527344 139.457031 219.609375 139.734375 218.703125 C 140.007812 217.800781 140.324219 216.910156 140.6875 216.035156 C 141.050781 215.160156 141.453125 214.308594 141.898438 213.472656 C 142.34375 212.640625 142.832031 211.828125 143.355469 211.042969 C 143.882812 210.253906 144.445312 209.496094 145.042969 208.765625 C 145.644531 208.035156 146.277344 207.335938 146.949219 206.664062 C 147.617188 205.996094 148.316406 205.363281 149.046875 204.761719 C 149.777344 204.164062 150.539062 203.597656 151.324219 203.074219 C 152.109375 202.546875 152.921875 202.0625 153.753906 201.617188 C 154.589844 201.171875 155.445312 200.765625 156.316406 200.40625 C 157.191406 200.042969 158.082031 199.726562 158.988281 199.449219 C 159.890625 199.175781 160.808594 198.945312 161.734375 198.761719 C 162.664062 198.578125 163.597656 198.4375 164.539062 198.34375 C 165.480469 198.253906 166.425781 198.207031 167.371094 198.207031 L 215.574219 198.207031 C 216.519531 198.207031 217.460938 198.253906 218.402344 198.34375 C 219.34375 198.4375 220.277344 198.578125 221.207031 198.761719 C 222.132812 198.945312 223.050781 199.175781 223.957031 199.449219 C 224.863281 199.726562 225.75 200.042969 226.625 200.40625 C 227.5 200.765625 228.351562 201.171875 229.1875 201.617188 C 230.019531 202.0625 230.832031 202.546875 231.617188 203.074219 C 232.40625 203.597656 233.164062 204.164062 233.894531 204.761719 C 234.625 205.363281 235.324219 205.996094 235.996094 206.664062 C 236.664062 207.335938 237.296875 208.035156 237.898438 208.765625 C 238.5 209.496094 239.0625 210.253906 239.585938 211.042969 C 240.113281 211.828125 240.597656 212.640625 241.042969 213.472656 C 241.488281 214.308594 241.894531 215.160156 242.253906 216.035156 C 242.617188 216.910156 242.9375 217.800781 243.210938 218.703125 C 243.484375 219.609375 243.714844 220.527344 243.898438 221.453125 C 244.082031 222.382812 244.222656 223.316406 244.316406 224.257812 C 244.40625 225.199219 244.453125 226.140625 244.453125 227.089844 C 244.453125 228.035156 244.40625 228.976562 244.316406 229.917969 C 244.222656 230.859375 244.082031 231.792969 243.898438 232.722656 C 243.714844 233.648438 243.484375 234.566406 243.210938 235.472656 C 242.9375 236.378906 242.617188 237.265625 242.253906 238.140625 C 241.894531 239.015625 241.488281 239.867188 241.042969 240.703125 C 240.597656 241.535156 240.113281 242.347656 239.585938 243.132812 C 239.0625 243.921875 238.5 244.679688 237.898438 245.410156 C 237.296875 246.140625 236.664062 246.839844 235.996094 247.511719 C 235.324219 248.179688 234.625 248.8125 233.894531 249.414062 C 233.164062 250.015625 232.40625 250.578125 231.617188 251.101562 C 230.832031 251.628906 230.019531 252.113281 229.1875 252.558594 C 228.351562 253.003906 227.5 253.410156 226.625 253.769531 C 225.75 254.132812 224.863281 254.453125 223.957031 254.726562 C 223.050781 255 222.132812 255.230469 221.207031 255.414062 C 220.277344 255.597656 219.34375 255.738281 218.402344 255.832031 C 217.460938 255.921875 216.519531 255.96875 215.574219 255.96875 Z M 167.371094 214.941406 C 166.574219 214.941406 165.78125 215.019531 165 215.175781 C 164.21875 215.332031 163.460938 215.5625 162.722656 215.867188 C 161.984375 216.171875 161.285156 216.546875 160.625 216.988281 C 159.960938 217.433594 159.347656 217.9375 158.78125 218.5 C 158.21875 219.0625 157.714844 219.675781 157.273438 220.339844 C 156.828125 221.003906 156.457031 221.703125 156.148438 222.441406 C 155.84375 223.175781 155.613281 223.9375 155.460938 224.71875 C 155.304688 225.5 155.226562 226.289062 155.226562 227.089844 C 155.226562 227.886719 155.304688 228.675781 155.460938 229.457031 C 155.613281 230.238281 155.84375 231 156.148438 231.734375 C 156.457031 232.472656 156.828125 233.171875 157.273438 233.835938 C 157.714844 234.5 158.21875 235.113281 158.78125 235.675781 C 159.347656 236.238281 159.960938 236.742188 160.625 237.1875 C 161.285156 237.628906 161.984375 238.003906 162.722656 238.308594 C 163.460938 238.613281 164.21875 238.84375 165 239 C 165.78125 239.15625 166.574219 239.234375 167.371094 239.234375 L 215.574219 239.234375 C 216.371094 239.234375 217.160156 239.15625 217.941406 239 C 218.722656 238.84375 219.484375 238.613281 220.21875 238.308594 C 220.957031 238.003906 221.65625 237.628906 222.320312 237.1875 C 222.984375 236.742188 223.597656 236.238281 224.160156 235.675781 C 224.722656 235.113281 225.226562 234.5 225.671875 233.835938 C 226.113281 233.171875 226.488281 232.472656 226.792969 231.734375 C 227.097656 231 227.328125 230.238281 227.484375 229.457031 C 227.640625 228.675781 227.71875 227.886719 227.71875 227.089844 C 227.71875 226.289062 227.640625 225.5 227.484375 224.71875 C 227.328125 223.9375 227.097656 223.175781 226.792969 222.441406 C 226.488281 221.703125 226.113281 221.003906 225.671875 220.339844 C 225.226562 219.675781 224.722656 219.0625 224.160156 218.5 C 223.597656 217.9375 222.984375 217.433594 222.320312 216.988281 C 221.65625 216.546875 220.957031 216.171875 220.21875 215.867188 C 219.484375 215.5625 218.722656 215.332031 217.941406 215.175781 C 217.160156 215.019531 216.371094 214.941406 215.574219 214.941406 Z M 167.371094 214.941406 " fill-opacity="1" fill-rule="nonzero"/><path fill="#ffffff" d="M 536.566406 235.457031 L 290.28125 235.457031 C 289.730469 235.457031 289.1875 235.402344 288.648438 235.296875 C 288.109375 235.1875 287.585938 235.03125 287.078125 234.820312 C 286.570312 234.609375 286.089844 234.351562 285.632812 234.046875 C 285.175781 233.742188 284.753906 233.394531 284.363281 233.003906 C 283.976562 232.617188 283.628906 232.195312 283.324219 231.738281 C 283.019531 231.28125 282.761719 230.796875 282.550781 230.289062 C 282.339844 229.78125 282.179688 229.257812 282.074219 228.71875 C 281.964844 228.183594 281.914062 227.636719 281.914062 227.089844 C 281.914062 226.539062 281.964844 225.996094 282.074219 225.457031 C 282.179688 224.917969 282.339844 224.394531 282.550781 223.886719 C 282.761719 223.378906 283.019531 222.894531 283.324219 222.4375 C 283.628906 221.980469 283.976562 221.558594 284.363281 221.171875 C 284.753906 220.78125 285.175781 220.433594 285.632812 220.128906 C 286.089844 219.824219 286.570312 219.566406 287.078125 219.355469 C 287.585938 219.144531 288.109375 218.988281 288.648438 218.878906 C 289.1875 218.773438 289.730469 218.71875 290.28125 218.71875 L 536.566406 218.71875 C 537.113281 218.71875 537.65625 218.773438 538.195312 218.878906 C 538.734375 218.988281 539.257812 219.144531 539.765625 219.355469 C 540.273438 219.566406 540.757812 219.824219 541.214844 220.128906 C 541.671875 220.433594 542.09375 220.78125 542.480469 221.171875 C 542.871094 221.558594 543.21875 221.980469 543.523438 222.4375 C 543.828125 222.894531 544.085938 223.378906 544.296875 223.886719 C 544.507812 224.394531 544.664062 224.917969 544.773438 225.457031 C 544.878906 225.996094 544.933594 226.539062 544.933594 227.089844 C 544.933594 227.636719 544.878906 228.183594 544.773438 228.71875 C 544.664062 229.257812 544.507812 229.78125 544.296875 230.289062 C 544.085938 230.796875 543.828125 231.28125 543.523438 231.738281 C 543.21875 232.195312 542.871094 232.617188 542.480469 233.003906 C 542.09375 233.394531 541.671875 233.742188 541.214844 234.046875 C 540.757812 234.351562 540.273438 234.609375 539.765625 234.820312 C 539.257812 235.03125 538.734375 235.1875 538.195312 235.296875 C 537.65625 235.402344 537.113281 235.457031 536.566406 235.457031 Z M 536.566406 235.457031 " fill-opacity="1" fill-rule="nonzero"/><path fill="#ffffff" d="M 536.566406 340.0625 L 290.28125 340.0625 C 289.730469 340.0625 289.1875 340.007812 288.648438 339.902344 C 288.109375 339.792969 287.585938 339.636719 287.078125 339.425781 C 286.570312 339.214844 286.089844 338.957031 285.632812 338.652344 C 285.175781 338.347656 284.753906 338 284.363281 337.609375 C 283.976562 337.222656 283.628906 336.800781 283.324219 336.34375 C 283.019531 335.886719 282.761719 335.402344 282.550781 334.894531 C 282.339844 334.386719 282.179688 333.863281 282.074219 333.324219 C 281.964844 332.785156 281.914062 332.242188 281.914062 331.695312 C 281.914062 331.144531 281.964844 330.601562 282.074219 330.0625 C 282.179688 329.523438 282.339844 329 282.550781 328.492188 C 282.761719 327.984375 283.019531 327.5 283.324219 327.042969 C 283.628906 326.585938 283.976562 326.164062 284.363281 325.777344 C 284.753906 325.386719 285.175781 325.039062 285.632812 324.734375 C 286.089844 324.429688 286.570312 324.171875 287.078125 323.960938 C 287.585938 323.75 288.109375 323.59375 288.648438 323.484375 C 289.1875 323.378906 289.730469 323.324219 290.28125 323.324219 L 536.566406 323.324219 C 537.113281 323.324219 537.65625 323.378906 538.195312 323.484375 C 538.734375 323.59375 539.257812 323.75 539.765625 323.960938 C 540.273438 324.171875 540.757812 324.429688 541.214844 324.734375 C 541.671875 325.039062 542.09375 325.386719 542.480469 325.777344 C 542.871094 326.164062 543.21875 326.585938 543.523438 327.042969 C 543.828125 327.5 544.085938 327.984375 544.296875 328.492188 C 544.507812 329 544.664062 329.523438 544.773438 330.0625 C 544.878906 330.601562 544.933594 331.144531 544.933594 331.695312 C 544.933594 332.242188 544.878906 332.785156 544.773438 333.324219 C 544.664062 333.863281 544.507812 334.386719 544.296875 334.894531 C 544.085938 335.402344 543.828125 335.886719 543.523438 336.34375 C 543.21875 336.800781 542.871094 337.222656 542.480469 337.609375 C 542.09375 338 541.671875 338.347656 541.214844 338.652344 C 540.757812 338.957031 540.273438 339.214844 539.765625 339.425781 C 539.257812 339.636719 538.734375 339.792969 538.195312 339.902344 C 537.65625 340.007812 537.113281 340.0625 536.566406 340.0625 Z M 536.566406 340.0625 " fill-opacity="1" fill-rule="nonzero"/><path fill="#ffffff" d="M 536.566406 444.667969 L 290.28125 444.667969 C 289.730469 444.667969 289.1875 444.613281 288.648438 444.507812 C 288.109375 444.398438 287.585938 444.242188 287.078125 444.03125 C 286.570312 443.820312 286.089844 443.5625 285.632812 443.257812 C 285.175781 442.953125 284.753906 442.605469 284.363281 442.214844 C 283.976562 441.828125 283.628906 441.40625 283.324219 440.949219 C 283.019531 440.492188 282.761719 440.007812 282.550781 439.5 C 282.339844 438.992188 282.179688 438.46875 282.074219 437.929688 C 281.964844 437.390625 281.914062 436.847656 281.914062 436.296875 C 281.914062 435.75 281.964844 435.203125 282.074219 434.667969 C 282.179688 434.128906 282.339844 433.605469 282.550781 433.097656 C 282.761719 432.589844 283.019531 432.105469 283.324219 431.648438 C 283.628906 431.191406 283.976562 430.769531 284.363281 430.382812 C 284.753906 429.992188 285.175781 429.644531 285.632812 429.339844 C 286.089844 429.035156 286.570312 428.777344 287.078125 428.566406 C 287.585938 428.355469 288.109375 428.199219 288.648438 428.089844 C 289.1875 427.984375 289.730469 427.929688 290.28125 427.929688 L 536.566406 427.929688 C 537.113281 427.929688 537.65625 427.984375 538.195312 428.089844 C 538.734375 428.199219 539.257812 428.355469 539.765625 428.566406 C 540.273438 428.777344 540.757812 429.035156 541.214844 429.339844 C 541.671875 429.644531 542.09375 429.992188 542.480469 430.382812 C 542.871094 430.769531 543.21875 431.191406 543.523438 431.648438 C 543.828125 432.105469 544.085938 432.589844 544.296875 433.097656 C 544.507812 433.605469 544.664062 434.128906 544.773438 434.667969 C 544.878906 435.203125 544.933594 435.75 544.933594 436.296875 C 544.933594 436.847656 544.878906 437.390625 544.773438 437.929688 C 544.664062 438.46875 544.507812 438.992188 544.296875 439.5 C 544.085938 440.007812 543.828125 440.492188 543.523438 440.949219 C 543.21875 441.40625 542.871094 441.828125 542.480469 442.214844 C 542.09375 442.605469 541.671875 442.953125 541.214844 443.257812 C 540.757812 443.5625 540.273438 443.820312 539.765625 444.03125 C 539.257812 444.242188 538.734375 444.398438 538.195312 444.507812 C 537.65625 444.613281 537.113281 444.667969 536.566406 444.667969 Z M 536.566406 444.667969 " fill-opacity="1" fill-rule="nonzero"/><path fill="#ffffff" d="M 536.566406 549.273438 L 290.28125 549.273438 C 289.730469 549.273438 289.1875 549.21875 288.648438 549.113281 C 288.109375 549.003906 287.585938 548.84375 287.078125 548.636719 C 286.570312 548.425781 286.089844 548.167969 285.632812 547.863281 C 285.175781 547.558594 284.753906 547.210938 284.363281 546.820312 C 283.976562 546.433594 283.628906 546.011719 283.324219 545.554688 C 283.019531 545.097656 282.761719 544.613281 282.550781 544.105469 C 282.339844 543.597656 282.179688 543.074219 282.074219 542.535156 C 281.964844 541.996094 281.914062 541.453125 281.914062 540.902344 C 281.914062 540.355469 281.964844 539.808594 282.074219 539.269531 C 282.179688 538.734375 282.339844 538.210938 282.550781 537.703125 C 282.761719 537.195312 283.019531 536.710938 283.324219 536.253906 C 283.628906 535.796875 283.976562 535.375 284.363281 534.988281 C 284.753906 534.597656 285.175781 534.25 285.632812 533.945312 C 286.089844 533.640625 286.570312 533.382812 287.078125 533.171875 C 287.585938 532.960938 288.109375 532.804688 288.648438 532.695312 C 289.1875 532.589844 289.730469 532.535156 290.28125 532.535156 L 536.566406 532.535156 C 537.113281 532.535156 537.65625 532.589844 538.195312 532.695312 C 538.734375 532.804688 539.257812 532.960938 539.765625 533.171875 C 540.273438 533.382812 540.757812 533.640625 541.214844 533.945312 C 541.671875 534.25 542.09375 534.597656 542.480469 534.988281 C 542.871094 535.375 543.21875 535.796875 543.523438 536.253906 C 543.828125 536.710938 544.085938 537.195312 544.296875 537.703125 C 544.507812 538.210938 544.664062 538.734375 544.773438 539.269531 C 544.878906 539.808594 544.933594 540.355469 544.933594 540.902344 C 544.933594 541.453125 544.878906 541.996094 544.773438 542.535156 C 544.664062 543.074219 544.507812 543.597656 544.296875 544.105469 C 544.085938 544.613281 543.828125 545.097656 543.523438 545.554688 C 543.21875 546.011719 542.871094 546.433594 542.480469 546.820312 C 542.09375 547.210938 541.671875 547.558594 541.214844 547.863281 C 540.757812 548.167969 540.273438 548.425781 539.765625 548.636719 C 539.257812 548.84375 538.734375 549.003906 538.195312 549.113281 C 537.65625 549.21875 537.113281 549.273438 536.566406 549.273438 Z M 536.566406 549.273438 " fill-opacity="1" fill-rule="nonzero"/></svg>